# xmcd
#
# Track frame offsets:
#	150
#	15726
#	18491
#	28877
#	33286
#	54264
#	66187
#	69902
#	73688
#	76575
#	92648
#	112635
#	115701
#	118704
#	121879
#	144037
#	164082
#	167048
#	185284
#	191654
#	209421
#	212220
#	214947
#	225680
#	228529
#	231146
#	233950
#	249461
#	254733
#	275597
#	278447
#	295605
#	298325
#	314100
#	318280
#	332624
#	336809
#	339659
#	351464
#
# Disc length: 4793 seconds
#
# Revision: 1
# Processed by: cddbd v1.5.2PL0 Copyright (c) Steve Scherf et al.
# Submitted via: audiograbber 1.83.01
#
DISCID=4c12b727
DTITLE=Blue Valley - 63b
DYEAR=2011
DGENRE=
TTITLE0=Discovery_Channel
TTITLE1=Discovery_Channel_Cut_30
TTITLE2=Discovery_Channel_Talkover
TTITLE3=Discovery_Channel_Trailer
TTITLE4=Waters_of_Gwyn
TTITLE5=Waters_of_Gwyn_Vocal
TTITLE6=Waters_of_Gwyn_Cut_30_1
TTITLE7=Waters_of_Gwyn_Cut_30_2
TTITLE8=Brazil_2014_Cut_30
TTITLE9=Brazil_2014_Langversion
TTITLE10=Curie
TTITLE11=Curie_Cut_30_1
TTITLE12=Curie_Cut_30_2
TTITLE13=Edison_Cut_30
TTITLE14=Edison_Flaeche
TTITLE15=Edison_Langversion
TTITLE16=Palmwedel_Cut_30
TTITLE17=Palmwedel_Langversion
TTITLE18=Palmwedel_Trailer
TTITLE19=Mangotree
TTITLE20=Mangotree_Cut_30_1
TTITLE21=Mangotree_Cut_30_2
TTITLE22=Mangotree_unplugged
TTITLE23=Orlando_Cut_30_1
TTITLE24=Orlando_Cut_25
TTITLE25=Orlando_Cut_30_2
TTITLE26=Orlando_Langversion
TTITLE27=Orlando_Trailer
TTITLE28=Osmium
TTITLE29=Aloa_Cut_30
TTITLE30=Aloa_Langversion
TTITLE31=Salsomaggiore_Cut_30
TTITLE32=Salsomaggiore_Langversion
TTITLE33=Charlize_Cut_Snip
TTITLE34=Charlize_Langversion
TTITLE35=Charlize_Trailer
TTITLE36=Ventilation_Cut_30
TTITLE37=Ventilation_Langversion
TTITLE38=Ventilation_Flaeche
EXTD=
EXTT0=
EXTT1=
EXTT2=
EXTT3=
EXTT4=
EXTT5=
EXTT6=
EXTT7=
EXTT8=
EXTT9=
EXTT10=
EXTT11=
EXTT12=
EXTT13=
EXTT14=
EXTT15=
EXTT16=
EXTT17=
EXTT18=
EXTT19=
EXTT20=
EXTT21=
EXTT22=
EXTT23=
EXTT24=
EXTT25=
EXTT26=
EXTT27=
EXTT28=
EXTT29=
EXTT30=
EXTT31=
EXTT32=
EXTT33=
EXTT34=
EXTT35=
EXTT36=
EXTT37=
EXTT38=
PLAYORDER=
